<svg width="24" height="24" viewBox="0 0 24 24" fill="none" xmlns="http://www.w3.org/2000/svg">
<path fill-rule="evenodd" clip-rule="evenodd" d="M12.0059 13C18.2334 13 22 15.3038 22 19C22 19.611 21.9864 19.9668 21.9236 20.4096C21.7072 21.9364 20.9641 23 19.4688 23H4.54308C3.04346 23 2.29511 21.9371 2.07705 20.4107C2.01372 19.9674 2 19.6113 2 19C2 15.3026 5.76853 13 12.0059 13ZM12.0059 15C6.73095 15 4 16.6686 4 19C4 19.5202 4.01103 19.8064 4.05695 20.1278C4.1517 20.7911 4.29879 21 4.54308 21H19.4688C19.704 21 19.8494 20.7918 19.9434 20.1289C19.976 19.899 19.9909 19.6871 19.9968 19.3951L20 19C20 16.6692 17.2708 15 12.0059 15ZM12 1C14.7386 1 17 3.17028 17 5.94495C17 8.75314 14.7402 11 12 11C9.2702 11 7 8.75375 7 5.9633C7 3.19963 9.26977 1 12 1ZM12 3C10.3605 3 9 4.31849 9 5.9633C9 7.64441 10.3701 9 12 9C13.6382 9 15 7.64599 15 5.94495C15 4.29367 13.652 3 12 3Z" fill="black"/>
</svg>
