<svg width="73" height="73" viewBox="0 0 73 73" fill="none" xmlns="http://www.w3.org/2000/svg">
<rect width="73" height="73" fill="white"/>
<path fill-rule="evenodd" clip-rule="evenodd" d="M21.2436 17.236L20.427 13.728C19.7913 11.0222 17.5136 9.12484 14.9011 9.125H12.1666V13.1805H14.9011C15.7949 13.1527 16.5858 13.7945 16.8001 14.7216L23.5603 44.0834L24.2629 47.1047C24.9037 49.8327 27.2121 51.736 29.8458 51.7077H55.8424V47.6522H29.8458C28.952 47.68 28.1611 47.0382 27.9469 46.1111L27.719 45.0973L55.8424 38.0204C57.9216 37.5043 59.5561 35.7902 60.0771 33.5796L63.875 17.236H21.2436ZM56.4691 32.6063C56.2934 33.3468 55.7429 33.919 55.0449 34.0866L26.8455 41.1634L22.1931 21.2915H59.1086L56.4691 32.6063ZM21.2916 57.7917C21.2916 54.4319 24.0152 51.7083 27.375 51.7083C30.7347 51.7083 33.4583 54.4319 33.4583 57.7917C33.4583 61.1514 30.7347 63.875 27.375 63.875C24.0152 63.875 21.2916 61.1514 21.2916 57.7917ZM25.3471 57.7916C25.3471 58.9115 26.255 59.8194 27.3749 59.8194C28.4948 59.8194 29.4027 58.9115 29.4027 57.7916C29.4027 56.6717 28.4948 55.7638 27.3749 55.7638C26.255 55.7638 25.3471 56.6717 25.3471 57.7916ZM43.0465 55.4636C43.9881 53.1905 46.2063 51.7083 48.6667 51.7083C52.0264 51.7083 54.75 54.4319 54.75 57.7916C54.75 60.252 53.2678 62.4702 50.9947 63.4118C48.7215 64.3533 46.105 63.8329 44.3652 62.0931C42.6254 60.3533 42.105 57.7368 43.0465 55.4636ZM46.639 57.7916C46.639 58.9115 47.5468 59.8193 48.6667 59.8193C49.7866 59.8193 50.6945 58.9115 50.6945 57.7916C50.6945 56.6717 49.7866 55.7638 48.6667 55.7638C47.5468 55.7638 46.639 56.6717 46.639 57.7916Z" fill="#E6E6EB"/>
</svg>
