<svg width="20" height="18" viewBox="0 0 20 18" fill="none" xmlns="http://www.w3.org/2000/svg">
<path fill-rule="evenodd" clip-rule="evenodd" d="M9.9488 18L1.66155 9.7516C-0.553851 7.50903 -0.553851 3.90877 1.66155 1.66619C2.72834 0.599513 4.17706 0 5.6879 0C7.19875 0 8.64747 0.599513 9.71426 1.66619L9.9488 1.90712L10.1833 1.66619C11.2501 0.599513 12.6989 0 14.2097 0C15.7205 0 17.1693 0.599513 18.236 1.66619C20.4476 3.91033 20.4476 7.50747 18.236 9.7516L9.9488 18ZM5.68445 1.41108C4.5494 1.40732 3.46063 1.85941 2.6638 2.66535C0.999504 4.35512 0.999504 7.06266 2.6638 8.75244L9.9489 16.0017L17.234 8.75244C18.8983 7.06266 18.8983 4.35512 17.234 2.66535C16.4341 1.86697 15.3487 1.41837 14.2169 1.41837C13.0851 1.41837 11.9997 1.86697 11.1998 2.66535L9.9489 3.89836L8.70511 2.67243C7.90673 1.86791 6.81959 1.41395 5.68445 1.41108Z" fill="black"/>
</svg>
