<svg width="18" height="15" viewBox="0 0 18 15" fill="none" xmlns="http://www.w3.org/2000/svg">
<path fill-rule="evenodd" clip-rule="evenodd" d="M0.615266 3.12143H1.72685C1.99997 3.98293 2.88574 4.57815 3.89463 4.57815C4.90352 4.57815 5.78929 3.98293 6.06242 3.12143H16.6122C16.952 3.12143 17.2274 2.87708 17.2274 2.57567C17.2274 2.27425 16.952 2.02991 16.6122 2.02991H6.06652C5.7934 1.16841 4.90763 0.573181 3.89873 0.573181C2.88984 0.573181 2.00407 1.16841 1.73095 2.02991H0.615266C0.275464 2.02991 0 2.27425 0 2.57567C0 2.87708 0.275464 3.12143 0.615266 3.12143ZM3.89668 1.66607C4.46302 1.66607 4.92212 2.07331 4.92212 2.57567C4.92212 3.07803 4.46302 3.48527 3.89668 3.48527C3.33035 3.48527 2.87124 3.07803 2.87124 2.57567C2.87124 2.07331 3.33035 1.66607 3.89668 1.66607ZM16.6122 7.12366H10.7138C10.3782 6.35426 9.54379 5.84707 8.61372 5.84707C7.68365 5.84707 6.84927 6.35426 6.51361 7.12366H0.615266C0.275464 7.12366 0 7.368 0 7.66941C0 7.97083 0.275464 8.21517 0.615266 8.21517H6.39876C6.59954 9.16092 7.53083 9.84596 8.61577 9.84596C9.70071 9.84596 10.632 9.16092 10.8328 8.21517H16.6122C16.952 8.21517 17.2274 7.97083 17.2274 7.66941C17.2274 7.368 16.952 7.12366 16.6122 7.12366ZM8.61372 8.76093C8.04738 8.76093 7.58828 8.35369 7.58828 7.85133C7.58828 7.34898 8.04738 6.94174 8.61372 6.94174C9.18005 6.94174 9.63916 7.34898 9.63916 7.85133C9.63916 8.35369 9.18005 8.76093 8.61372 8.76093ZM15.5006 12.2174H16.6122C16.952 12.2174 17.2274 12.4617 17.2274 12.7632C17.2274 13.0646 16.952 13.3089 16.6122 13.3089H15.4965C15.2234 14.1704 14.3376 14.7656 13.3287 14.7656C12.3198 14.7656 11.434 14.1704 11.1609 13.3089H0.615266C0.275464 13.3089 0 13.0646 0 12.7632C0 12.4617 0.275464 12.2174 0.615266 12.2174H11.165C11.4381 11.3559 12.3239 10.7607 13.3328 10.7607C14.3417 10.7607 15.2275 11.3559 15.5006 12.2174ZM12.3053 12.7632C12.3053 13.2655 12.7644 13.6728 13.3308 13.6728C13.8971 13.6728 14.3562 13.2655 14.3562 12.7632C14.3562 12.2608 13.8971 11.8536 13.3308 11.8536C12.7644 11.8536 12.3053 12.2608 12.3053 12.7632Z" fill="black"/>
</svg>
