<svg width="24" height="24" viewBox="0 0 24 24" fill="none" xmlns="http://www.w3.org/2000/svg">
<path fill-rule="evenodd" clip-rule="evenodd" d="M12.0004 1.99902C9.28441 1.99902 8.94356 2.0109 7.87682 2.05944C6.81217 2.1082 6.08546 2.27675 5.44959 2.52406C4.79184 2.77949 4.23389 3.12118 3.67802 3.67725C3.12173 4.23312 2.78005 4.79107 2.52378 5.44862C2.27585 6.0847 2.10709 6.81162 2.05917 7.87585C2.01146 8.94258 1.99895 9.28365 1.99895 11.9997C1.99895 14.7157 2.01104 15.0555 2.05937 16.1222C2.10834 17.1869 2.27689 17.9136 2.52399 18.5494C2.77963 19.2072 3.12132 19.7651 3.67739 20.321C4.23305 20.8773 4.79101 21.2198 5.44834 21.4752C6.08463 21.7225 6.81155 21.8911 7.87599 21.9399C8.94272 21.9884 9.28337 22.0003 11.9992 22.0003C14.7154 22.0003 15.0552 21.9884 16.1219 21.9399C17.1866 21.8911 17.9141 21.7225 18.5504 21.4752C19.2079 21.2198 19.7651 20.8773 20.3207 20.321C20.877 19.7651 21.2187 19.2072 21.475 18.5496C21.7208 17.9136 21.8896 17.1866 21.9396 16.1224C21.9875 15.0557 22 14.7157 22 11.9997C22 9.28365 21.9875 8.94279 21.9396 7.87606C21.8896 6.81141 21.7208 6.0847 21.475 5.44882C21.2187 4.79107 20.877 4.23312 20.3207 3.67725C19.7644 3.12097 19.2082 2.77928 18.5498 2.52406C17.9122 2.27675 17.1851 2.1082 16.1205 2.05944C15.0537 2.0109 14.7141 1.99902 11.9973 1.99902H12.0004ZM11.1033 3.80122C11.2774 3.80095 11.4648 3.80103 11.6669 3.80112H11.6671L12.0004 3.80122C14.6706 3.80122 14.9871 3.8108 16.0415 3.85872C17.0166 3.90331 17.5458 4.06624 17.8983 4.20312C18.365 4.38438 18.6977 4.60106 19.0475 4.95108C19.3975 5.30111 19.6142 5.63446 19.7959 6.10116C19.9328 6.45326 20.0959 6.98246 20.1403 7.95752C20.1882 9.01175 20.1986 9.32844 20.1986 11.9974C20.1986 14.6663 20.1882 14.983 20.1403 16.0372C20.0957 17.0123 19.9328 17.5415 19.7959 17.8936C19.6146 18.3603 19.3975 18.6926 19.0475 19.0424C18.6975 19.3924 18.3652 19.6091 17.8983 19.7903C17.5462 19.9279 17.0166 20.0904 16.0415 20.135C14.9873 20.1829 14.6706 20.1933 12.0004 20.1933C9.33004 20.1933 9.01356 20.1829 7.95933 20.135C6.98427 20.0899 6.45507 19.927 6.10234 19.7901C5.63564 19.6089 5.30229 19.3922 4.95226 19.0422C4.60224 18.6922 4.38556 18.3596 4.20388 17.8927C4.067 17.5406 3.90387 17.0114 3.85949 16.0364C3.81157 14.9821 3.80198 14.6654 3.80198 11.9949C3.80198 9.32427 3.81157 9.00925 3.85949 7.95502C3.90407 6.97996 4.067 6.45076 4.20388 6.09824C4.38515 5.63154 4.60224 5.29819 4.95226 4.94817C5.30229 4.59814 5.63564 4.38146 6.10234 4.19979C6.45486 4.06228 6.98427 3.89977 7.95933 3.85497C8.88189 3.8133 9.23941 3.8008 11.1033 3.79872V3.80122ZM17.3387 5.46174C16.6761 5.46174 16.1386 5.99865 16.1386 6.6614C16.1386 7.32394 16.6761 7.86147 17.3387 7.86147C18.0012 7.86147 18.5387 7.32394 18.5387 6.6614C18.5387 5.99886 18.0012 5.46132 17.3387 5.46132V5.46174ZM6.86468 11.9997C6.86468 9.1635 9.16408 6.86402 12.0002 6.86391C14.8364 6.86391 17.1353 9.16343 17.1353 11.9997C17.1353 14.8359 14.8366 17.1343 12.0004 17.1343C9.1642 17.1343 6.86468 14.8359 6.86468 11.9997ZM15.334 11.9997C15.334 10.1585 13.8414 8.66611 12.0004 8.66611C10.1593 8.66611 8.66687 10.1585 8.66687 11.9997C8.66687 13.8406 10.1593 15.3332 12.0004 15.3332C13.8414 15.3332 15.334 13.8406 15.334 11.9997Z" fill="#F0F0F5"/>
</svg>
