<svg width="47" height="45" viewBox="0 0 47 45" fill="none" xmlns="http://www.w3.org/2000/svg">
<rect x="0.5" y="0.5" width="46" height="44" rx="6.5" fill="white" stroke="black"/>
<path d="M14.008 34.576C10.624 34.576 7.768 33.952 5.44 32.704L7.24 27.124C9.712 28.012 11.92 28.456 13.864 28.456C14.92 28.456 15.688 28.336 16.168 28.096C16.672 27.832 16.924 27.448 16.924 26.944C16.924 26.608 16.792 26.32 16.528 26.08C16.264 25.816 15.736 25.528 14.944 25.216C14.152 24.904 12.964 24.52 11.38 24.064C9.436 23.488 7.924 22.552 6.844 21.256C5.764 19.936 5.224 18.424 5.224 16.72C5.224 14.08 6.088 12.088 7.816 10.744C9.568 9.376 11.92 8.692 14.872 8.692C16.408 8.692 17.92 8.86 19.408 9.196C20.896 9.508 22.216 9.976 23.368 10.6L21.424 16.036C20.08 15.58 18.904 15.256 17.896 15.064C16.912 14.848 15.952 14.74 15.016 14.74C13.432 14.74 12.64 15.172 12.64 16.036C12.64 16.468 12.892 16.84 13.396 17.152C13.924 17.44 14.992 17.812 16.6 18.268C19.12 18.94 21.028 19.972 22.324 21.364C23.62 22.732 24.268 24.376 24.268 26.296C24.268 28.96 23.404 31.012 21.676 32.452C19.948 33.868 17.392 34.576 14.008 34.576Z" fill="black"/>
<path d="M27.1623 33.51V32.936H31.4743C32.1089 32.936 32.4263 32.6187 32.4263 31.984V30.276C32.4263 29.6413 32.1089 29.324 31.4743 29.324H27.3023V24.34H33.1823V25.404H28.4783V28.26H31.4603C32.8883 28.26 33.6022 28.974 33.6022 30.402V31.858C33.6022 33.286 32.8883 34 31.4603 34H27.7923L27.1623 33.51ZM35.396 34V31.06C35.396 29.884 35.9093 29.1933 36.936 28.988L39.806 28.414C40.282 28.3207 40.52 28.008 40.52 27.476V26.356C40.52 25.7213 40.2027 25.404 39.568 25.404H35.676V24.83L36.306 24.34H39.554C40.982 24.34 41.696 25.054 41.696 26.482V27.392C41.696 28.568 41.1827 29.2587 40.156 29.464L37.286 30.038C36.81 30.1313 36.572 30.444 36.572 30.976V32.936H41.696V34H35.396Z" fill="black"/>
<path d="M29 21H40.5" stroke="black"/>
</svg>
